<?xml version="1.0" encoding="utf-8" ?>
<svg xmlns="http://www.w3.org/2000/svg" xmlns:xlink="http://www.w3.org/1999/xlink" width="1080" height="1080">
	<defs>
		<linearGradient id="gradient_0" gradientUnits="userSpaceOnUse" x1="529.92108" y1="1057.5114" x2="550.27753" y2="313.664">
			<stop offset="0" stop-color="#20135A"/>
			<stop offset="1" stop-color="#5D42D3"/>
		</linearGradient>
	</defs>
	<path fill="url(#gradient_0)" d="M534.308 21.0148C650.686 20.3788 767.068 20.4486 883.445 21.2241C883.935 62.8975 883.979 104.575 883.578 146.249L883.599 291.469C883.604 317.653 883.217 343.902 883.741 370.079L534.686 369.787C535.398 388.134 535.826 406.638 538.64 424.809C551.571 504.751 590.653 578.146 649.765 633.496C678.563 660.199 703.422 677.216 738.385 694.784C746.252 698.738 753.866 703.085 762.105 706.251C778.956 712.726 797.233 717.271 814.725 721.728C838.185 727.705 862.268 732.524 886.546 733.085C887.351 765.407 886.743 797.657 886.479 829.976L886.581 915.193C887.022 950.145 887.073 985.101 886.733 1020.05C886.558 1031.42 887.686 1046.33 885.183 1057.15C881.181 1060.86 873.921 1059.94 868.841 1059.75C845.792 1058.89 822.62 1059.34 799.552 1059.35L683.734 1059.37L607.388 1059.03C591.85 1059.01 576.036 1058.58 560.553 1060C559.862 1042.94 559.428 1025.72 556.853 1008.81C550.638 968.033 535.949 925.786 516.131 889.638C509.456 877.463 501.958 866.111 494.093 854.685C488.718 846.877 483.445 838.894 477.382 831.595C472.953 826.264 467.899 821.6 463.145 816.582C459.854 813.107 457.538 808.684 454.125 805.357C450.905 802.217 446.606 800.232 443.26 797.188C439.357 793.637 435.816 789.676 431.967 786.063C427.322 781.703 422.216 777.704 417.164 773.824C403.823 763.58 388.499 754.731 373.734 746.663C313.639 713.823 261.33 702.959 193.421 699.843L193.365 478.824L193.348 404.047C193.344 390.195 193.816 376.133 193.108 362.307L417.789 362.361L486.6 362.348C502.641 362.336 518.597 362.044 534.63 362.847C533.877 297.796 534.492 232.669 534.459 167.609L534.308 21.0148Z"/>
	<defs>
		<linearGradient id="gradient_1" gradientUnits="userSpaceOnUse" x1="709.20312" y1="326.64554" x2="708.81085" y2="21.507803">
			<stop offset="0" stop-color="#6045D6"/>
			<stop offset="1" stop-color="#7657FC"/>
		</linearGradient>
	</defs>
	<path fill="url(#gradient_1)" d="M534.308 21.0148C650.686 20.3788 767.068 20.4486 883.445 21.2241C883.935 62.8975 883.979 104.575 883.578 146.249C883.5 145.899 883.416 145.551 883.344 145.199C882.842 142.729 883.01 139.999 883.005 137.481C881.587 141.444 882.518 169.744 882.52 176.58L882.612 274.445C882.619 291.318 883.26 308.469 882.464 325.315C882.17 324.444 882.16 323.967 882.165 323.065L881.43 322.957C881.05 324.301 880.83 325.578 880.631 326.956L880.091 327.007C879.934 326.1 879.87 325.227 879.828 324.307C878.804 323.858 878.519 323.733 877.406 324.211C876.995 324.388 876.28 324.848 875.881 325.095C872.314 324.025 869.029 323.38 865.343 322.917C862.042 322.502 858.648 323.205 855.333 323.275C848.116 323.429 840.739 322.94 833.497 322.902L833.252 323.963C831.846 323.604 832.726 323.913 831.52 323.293C829.854 322.436 773.226 323.019 765.467 322.898L765.222 323.943C763.929 323.552 764.782 323.885 763.648 323.257C761.647 322.149 723.72 323.018 718.006 322.898L717.761 323.943C716.468 323.552 717.321 323.885 716.187 323.257C714.549 322.35 644.508 323.17 636.053 322.878C635.815 323.009 635.578 323.143 635.337 323.271C634.303 323.823 634.728 323.631 633.602 323.99C633.321 323.801 633.048 323.6 632.76 323.424C632.013 322.967 631.345 322.847 630.482 322.824C610.383 322.276 590.045 323.191 569.923 323.22C565.522 323.227 552.35 322.346 548.958 323.131C548.329 323.277 547.756 323.597 547.15 323.8C546.381 324.056 544.094 324.28 543.561 324.717C542.338 325.72 543.103 327.53 540.796 326.924C539.271 326.524 538.076 326.095 536.501 326.512C534.178 329.821 537.429 354.156 535.535 360.64C534.499 336.816 537.127 173.595 534.459 167.609L534.308 21.0148Z"/>
</svg>
