<?xml version="1.0" standalone="no"?>
<!DOCTYPE svg PUBLIC "-//W3C//DTD SVG 20010904//EN"
 "http://www.w3.org/TR/2001/REC-SVG-20010904/DTD/svg10.dtd">
<svg version="1.0" xmlns="http://www.w3.org/2000/svg"
 width="2003.000000pt" height="430.000000pt" viewBox="0 0 2003.000000 430.000000"
 preserveAspectRatio="xMidYMid meet">

<g transform="translate(0.000000,430.000000) scale(0.100000,-0.100000)"
fill="#000000" stroke="none">
<path d="M2380 3289 l0 -559 -560 0 -560 0 0 -549 0 -549 73 -7 c97 -9 255
-41 331 -67 271 -93 498 -284 648 -548 70 -124 131 -325 144 -477 l7 -83 523
0 c323 0 525 4 529 10 4 7 9 826 6 1016 l-1 42 -65 7 c-35 3 -122 22 -193 40
-345 89 -619 317 -776 646 -69 143 -116 333 -116 466 l0 33 570 0 570 0 0 564
c0 517 -1 564 -17 570 -9 4 -263 6 -565 5 l-548 -1 0 -559z"/>
<path d="M5810 3555 l0 -285 300 0 300 0 0 285 0 285 -300 0 -300 0 0 -285z"/>
<path d="M8590 2610 l0 -1230 294 0 295 0 3 618 3 617 23 48 c17 34 37 55 70
75 41 24 57 27 132 27 89 0 129 -13 178 -58 50 -46 52 -74 52 -724 l0 -603
301 0 300 0 -4 648 c-3 629 -4 649 -25 731 -78 296 -296 448 -592 411 -137
-16 -190 -40 -275 -124 -54 -53 -81 -90 -109 -148 -21 -43 -42 -78 -47 -78 -5
0 -9 202 -9 510 l0 510 -295 0 -295 0 0 -1230z"/>
<path d="M11612 3558 l3 -283 298 -3 297 -2 0 285 0 285 -300 0 -300 0 2 -282z"/>
<path d="M14110 3555 l0 -285 300 0 300 0 0 285 0 285 -300 0 -300 0 0 -285z"/>
<path d="M7846 3458 c-49 -288 -59 -298 -310 -298 -257 0 -396 -26 -556 -102
-88 -43 -117 -63 -181 -127 -87 -88 -140 -183 -164 -296 -19 -90 -19 -270 0
-360 20 -95 75 -203 139 -273 l53 -57 -137 -195 -138 -195 9 -60 c30 -192 184
-314 442 -350 56 -8 334 -35 617 -61 283 -26 519 -51 525 -55 5 -5 -278 -9
-642 -9 l-651 0 -146 -278 c-80 -153 -146 -282 -146 -286 0 -5 235 -6 523 -3
489 4 528 6 621 26 371 82 588 295 672 661 9 38 18 143 21 250 l6 186 -659 63
c-665 64 -757 76 -814 106 -40 21 -70 70 -70 116 0 47 7 52 39 30 204 -144
590 -189 915 -107 263 67 445 242 502 481 21 93 21 268 0 360 -58 244 -225
403 -470 446 -42 7 -66 16 -66 24 0 11 44 14 213 17 192 3 217 6 268 26 75 30
142 90 173 155 20 44 46 186 46 257 0 7 -102 10 -308 10 l-309 0 -17 -102z
m-181 -878 c95 -47 112 -155 37 -231 -32 -31 -47 -38 -112 -49 -47 -8 -110
-10 -169 -7 -155 11 -213 54 -215 162 0 61 19 97 67 122 50 26 93 32 222 30
105 -2 127 -6 170 -27z"/>
<path d="M10610 3350 l0 -190 -115 0 -115 0 2 -282 3 -283 113 -3 112 -3 0
-405 c0 -463 5 -501 70 -602 49 -77 129 -134 234 -169 76 -25 95 -27 319 -31
l237 -4 0 286 0 286 -103 0 c-98 0 -105 1 -128 26 l-24 26 -3 294 -3 294 131
0 130 0 0 285 0 285 -130 0 -130 0 0 190 0 190 -300 0 -300 0 0 -190z"/>
<path d="M15615 3169 c-312 -30 -535 -174 -655 -424 -79 -163 -105 -311 -97
-530 7 -174 37 -301 103 -435 91 -183 272 -326 481 -379 168 -43 394 -44 564
-1 365 91 577 381 596 815 21 476 -196 818 -587 924 -59 16 -296 45 -320 39
-3 0 -41 -4 -85 -9z m250 -583 c28 -13 60 -34 72 -47 83 -91 103 -342 38 -476
-45 -91 -119 -132 -241 -133 -97 0 -155 21 -203 76 -53 60 -66 113 -66 269 0
156 11 198 68 260 52 57 98 74 202 74 64 1 90 -4 130 -23z"/>
<path d="M17765 3169 c-153 -20 -280 -117 -352 -269 -21 -44 -41 -80 -45 -80
-5 0 -8 77 -8 170 l0 170 -300 0 -300 0 0 -890 0 -890 300 0 300 0 0 608 c0
393 4 620 11 645 23 84 106 137 214 137 106 0 190 -51 213 -128 9 -28 12 -212
12 -651 l0 -611 300 0 301 0 -3 663 c-4 652 -4 663 -26 735 -53 174 -134 277
-266 342 -115 56 -199 68 -351 49z"/>
<path d="M4360 2270 l0 -890 300 0 300 0 0 470 c0 451 1 473 21 533 28 83 79
143 148 176 55 25 61 26 299 29 l242 3 0 285 0 284 -154 0 c-177 0 -251 -17
-323 -73 -112 -86 -189 -257 -209 -467 -15 -152 -23 -75 -24 223 l0 317 -300
0 -300 0 0 -890z"/>
<path d="M5810 2270 l0 -890 300 0 300 0 0 890 0 890 -300 0 -300 0 0 -890z"/>
<path d="M11610 2270 l0 -890 300 0 300 0 0 890 0 890 -300 0 -300 0 0 -890z"/>
<path d="M12781 3145 c-200 -36 -343 -167 -397 -365 -26 -92 -26 -321 0 -405
42 -138 109 -222 219 -274 92 -43 140 -50 496 -71 178 -10 328 -23 333 -28 6
-6 8 -18 6 -28 -3 -18 -27 -19 -523 -24 l-520 -5 -3 -283 -2 -283 577 3 578 3
77 27 c141 47 231 123 288 242 77 164 80 430 6 592 -50 109 -159 194 -293 228
-40 11 -182 24 -389 36 -180 10 -331 23 -336 28 -6 6 -8 18 -6 28 3 18 27 19
523 24 l520 5 3 283 2 282 -542 -1 c-408 -1 -561 -4 -617 -14z"/>
<path d="M14110 2270 l0 -890 300 0 300 0 0 890 0 890 -300 0 -300 0 0 -890z"/>
</g>
</svg>
